<svg width="20" height="20" viewBox="0 0 20 20" fill="none" xmlns="http://www.w3.org/2000/svg">
<path d="M13.7328 11.4256L13.2 10.9488V6.8C13.2 5.95131 12.8629 5.13737 12.2627 4.53726C11.6626 3.93714 10.8487 3.6 10 3.6C9.15131 3.6 8.33738 3.93714 7.73727 4.53726C7.13715 5.13737 6.80001 5.95131 6.80001 6.8V10.9488L6.26721 11.4256C5.49404 12.1156 4.9279 13.0069 4.63201 14H15.368C15.0721 13.0069 14.506 12.1156 13.7328 11.4256ZM12.4 15.6C12.4 16.2365 12.1472 16.847 11.6971 17.2971C11.247 17.7471 10.6365 18 10 18C9.36349 18 8.75304 17.7471 8.30295 17.2971C7.85286 16.847 7.60001 16.2365 7.60001 15.6H2.80001C2.79892 14.5868 3.0122 13.5849 3.42583 12.66C3.83947 11.7351 4.4441 10.9082 5.20001 10.2336V6.8C5.20001 5.52696 5.70572 4.30606 6.60589 3.40589C7.50607 2.50571 8.72697 2 10 2C11.273 2 12.4939 2.50571 13.3941 3.40589C14.2943 4.30606 14.8 5.52696 14.8 6.8V10.2336C15.5559 10.9082 16.1605 11.7351 16.5742 12.66C16.9878 13.5849 17.2011 14.5868 17.2 15.6H12.4ZM10 16.4C10.2122 16.4 10.4157 16.3157 10.5657 16.1657C10.7157 16.0157 10.8 15.8122 10.8 15.6H9.20001C9.20001 15.8122 9.28429 16.0157 9.43432 16.1657C9.58435 16.3157 9.78783 16.4 10 16.4Z" fill="#0B1331"/>
</svg>
