<svg width="20" height="20" viewBox="0 0 20 20" fill="none" xmlns="http://www.w3.org/2000/svg">
<path d="M4.8784 5.99999L9.476 10.096C9.62251 10.2264 9.81183 10.2985 10.008 10.2985C10.2042 10.2985 10.3935 10.2264 10.54 10.096L15.1384 5.99999H4.8784ZM16.4 7.01839L11.6048 11.2912C11.1652 11.683 10.5969 11.8995 10.008 11.8995C9.41913 11.8995 8.85082 11.683 8.4112 11.2912L3.6 7.00319V14H16.4V7.01839ZM3.6 4.39999H16.4C16.8243 4.39999 17.2313 4.56856 17.5314 4.86862C17.8314 5.16868 18 5.57565 18 5.99999V14C18 14.4243 17.8314 14.8313 17.5314 15.1314C17.2313 15.4314 16.8243 15.6 16.4 15.6H3.6C3.17565 15.6 2.76869 15.4314 2.46863 15.1314C2.16857 14.8313 2 14.4243 2 14V5.99999C2 5.57565 2.16857 5.16868 2.46863 4.86862C2.76869 4.56856 3.17565 4.39999 3.6 4.39999Z" fill="#97A1B2"/>
</svg>
