<svg width="20" height="20" viewBox="0 0 20 20" fill="none" xmlns="http://www.w3.org/2000/svg">
<path d="M4.66666 15.7143C4.24761 15.7143 3.88888 15.5651 3.59047 15.2667C3.29206 14.9683 3.14285 14.6095 3.14285 14.1905V8.85714C3.14285 7.91746 3.32381 7.03175 3.68571 6.2C4.04761 5.36825 4.53968 4.64127 5.1619 4.01905C5.78412 3.39683 6.51111 2.90476 7.34285 2.54286C8.1746 2.18095 9.06031 2 10 2C10.9397 2 11.8254 2.18095 12.6571 2.54286C13.4889 2.90476 14.2159 3.39683 14.8381 4.01905C15.4603 4.64127 15.9524 5.36825 16.3143 6.2C16.6762 7.03175 16.8571 7.91746 16.8571 8.85714V16.4762C16.8571 16.8952 16.7079 17.254 16.4095 17.5524C16.1111 17.8508 15.7524 18 15.3333 18H10.7619C10.546 18 10.3651 17.927 10.219 17.781C10.073 17.6349 10 17.454 10 17.2381C10 17.0222 10.073 16.8413 10.219 16.6952C10.3651 16.5492 10.546 16.4762 10.7619 16.4762H15.3333V15.7143H13.8095C13.3905 15.7143 13.0317 15.5651 12.7333 15.2667C12.4349 14.9683 12.2857 14.6095 12.2857 14.1905V11.1429C12.2857 10.7238 12.4349 10.3651 12.7333 10.0667C13.0317 9.76825 13.3905 9.61905 13.8095 9.61905H15.3333V8.85714C15.3333 7.38413 14.8127 6.12698 13.7714 5.08571C12.7302 4.04444 11.473 3.52381 10 3.52381C8.52698 3.52381 7.26984 4.04444 6.22857 5.08571C5.1873 6.12698 4.66666 7.38413 4.66666 8.85714V9.61905H6.19047C6.60952 9.61905 6.96825 9.76825 7.26666 10.0667C7.56508 10.3651 7.71428 10.7238 7.71428 11.1429V14.1905C7.71428 14.6095 7.56508 14.9683 7.26666 15.2667C6.96825 15.5651 6.60952 15.7143 6.19047 15.7143H4.66666ZM4.66666 14.1905H6.19047V11.1429H4.66666V14.1905ZM13.8095 14.1905H15.3333V11.1429H13.8095V14.1905Z" fill="#0B1331"/>
</svg>
