<svg width="13" height="13" viewBox="0 0 13 13" fill="none" xmlns="http://www.w3.org/2000/svg">
<path d="M8.36036 3.45921L2.11619 9.70338L1.70788 11.0962L3.07237 10.7017L9.33727 4.4368L8.36036 3.45921ZM9.4257 2.39387L10.4026 3.37078L11.3132 2.4602C11.3779 2.39542 11.4143 2.30757 11.4143 2.21597C11.4143 2.12437 11.3779 2.03653 11.3132 1.97175L10.824 1.48329C10.7593 1.41853 10.6714 1.38215 10.5798 1.38215C10.4882 1.38215 10.4004 1.41853 10.3356 1.48329L9.42639 2.39387H9.4257ZM11.8016 0.506391L12.2901 0.994843C12.6139 1.31874 12.7958 1.75798 12.7958 2.21597C12.7958 2.67396 12.6139 3.1132 12.2901 3.4371L3.79779 11.9301L0.882282 12.773C0.763443 12.8072 0.637584 12.809 0.517846 12.778C0.398108 12.747 0.28888 12.6845 0.201566 12.5969C0.114252 12.5093 0.0520538 12.3998 0.0214643 12.28C-0.00912525 12.1602 -0.00698422 12.0343 0.0276638 11.9156L0.889881 8.97588L9.36007 0.5057C9.68396 0.181901 10.1232 0 10.5812 0C11.0392 0 11.4784 0.181901 11.8023 0.5057L11.8016 0.506391Z" fill="#6834FF"/>
</svg>
